<?xml version="1.0" encoding="UTF-8" standalone="no"?><!DOCTYPE svg PUBLIC "-//W3C//DTD SVG 1.1//EN" "http://www.w3.org/Graphics/SVG/1.1/DTD/svg11.dtd"><svg width="100%" height="100%" viewBox="0 0 1000 1000" version="1.1" xmlns="http://www.w3.org/2000/svg" xmlns:xlink="http://www.w3.org/1999/xlink" xml:space="preserve" xmlns:serif="http://www.serif.com/" style="fill-rule:evenodd;clip-rule:evenodd;stroke-linejoin:round;stroke-miterlimit:2;"><g><path d="M661.201,457.331l0.978,0.978l241.51,-241.51l65.56,0l0,566.135l-91.417,0l0,-411.063l-217.651,217.651l-64.607,-64.612l-241.819,-241.819c-23.986,-19.252 -54.437,-30.777 -87.556,-30.777c-77.28,0 -140.024,62.744 -140.024,140.024l0,215.323c0,77.28 62.744,140.024 140.024,140.024c77.28,0 140.02,-62.744 140.02,-140.024l0,-187.628l95.427,95.423l0,90.168c0,129.947 -105.5,235.447 -235.447,235.447c-129.947,0 -235.447,-105.5 -235.447,-235.447l0,-211.249c0,-129.947 105.5,-235.447 235.447,-235.447c58.802,0 112.6,21.602 153.882,57.299l241.112,241.112l0.008,-0.008Z" style="fill:#f00;"/></g></svg>